<svg xmlns="http://www.w3.org/2000/svg" width="794.259" height="325.488" viewBox="0 0 794.259 325.488">
  <g id="subjects-icon" transform="translate(0 -265.428)">
    <ellipse id="Ellipse_80" data-name="Ellipse 80" cx="397.129" cy="28.205" rx="397.129" ry="28.205" transform="translate(0 534.506)" fill="#e6e6e6"/>
    <path id="Path_251" data-name="Path 251" d="M906.373,733.048c-64.755-11.525-135.567-9.609-209.847,0,33.855-28.581,63.075-57.163,29.219-85.744,66.039,13.624,75.289,12.245,148.752,0C857.459,675.885,889.334,704.467,906.373,733.048Z" transform="translate(-198.987 -154.542)" fill="#6c63ff"/>
    <path id="Path_252" data-name="Path 252" d="M906.373,733.048c-64.755-11.525-135.567-9.609-209.847,0,33.855-28.581,63.075-57.163,29.219-85.744,66.039,13.624,75.289,12.245,148.752,0C857.459,675.885,889.334,704.467,906.373,733.048Z" transform="translate(-198.987 -154.542)" opacity="0.2"/>
    <path id="Path_253" data-name="Path 253" d="M890.578,720.854c-55.007-9.2-115.159-7.67-178.257,0,28.759-22.814,53.58-45.628,24.821-68.443,56.1,10.875,63.955,9.774,126.359,0C849.027,675.226,876.1,698.04,890.578,720.854Z" transform="translate(-198.987 -154.542)" fill="#6c63ff"/>
    <circle id="Ellipse_81" data-name="Ellipse 81" cx="29.309" cy="29.309" r="29.309" transform="translate(641.331 470.935)" fill="#2f2e41"/>
    <path id="Path_254" data-name="Path 254" d="M537.591,466.249l20.308,3.385,10.154,29.333L538.72,517.019l-33.847-50.77h32.718Z" fill="#a0616a"/>
    <circle id="Ellipse_82" data-name="Ellipse 82" cx="47.385" cy="47.385" r="47.385" transform="translate(547.745 416.608)" fill="#a0616a"/>
    <path id="Path_255" data-name="Path 255" d="M532.372,445.919s-115.077,12.41-135.385,10.154-29.333-4.513-29.333-4.513-13.539,18.051-6.769,25.949a48.821,48.821,0,0,0,13.538,11.282s12.41-3.385,21.436,0S496.27,506.842,512.065,493.3,532.372,445.919,532.372,445.919Z" transform="translate(-198.987 -154.542)" fill="#2f2e41"/>
    <path id="Path_256" data-name="Path 256" d="M540.27,697.509S464.68,676.073,451.141,581.3v-9.026s-14.956,26.238-20.308,31.59c-6.205,6.205-28.205,62.051-27.077,67.693s0,7.9,0,7.9l-32.718-3.385V665.919s17.487-52.462,18.615-64.872,43.436-98.718,43.436-98.718,15.795-32.718,42.872,0S505.3,557.611,505.3,557.611L540.27,625.3Z" transform="translate(-198.987 -154.542)" fill="#2f2e41"/>
    <path id="Path_257" data-name="Path 257" d="M371.038,448.175l-36.1-12.41s-33.846-24.821-25.949,0,44,78.975,54.154,73.334,22.366-19.643,19.644-21.668S362.013,470.739,371.038,448.175Z" transform="translate(-198.987 -154.542)" fill="#2f2e41"/>
    <path id="Path_258" data-name="Path 258" d="M375.4,659.259l-29.144,14.233s-35.244,5.422-15.589,15.589,73.876,21.011,76.587,11.522,1.635-25.236-1.216-24.818S383.535,678.236,375.4,659.259Z" transform="translate(-198.987 -154.542)" fill="#2f2e41"/>
    <path id="Path_259" data-name="Path 259" d="M525.6,623.048s-14.667,63.18,10.154,76.718,198.565,15.795,212.1-9.026,6.769-24.821,6.769-24.821l-36.1-40.616,29.333-2.256s0-9.026-10.154-10.154-41.744-12.41-68.821-4.513-42.872-15.795-42.872-15.795Z" transform="translate(-198.987 -154.542)" fill="#575a89"/>
    <path id="Path_260" data-name="Path 260" d="M307.437,271.069l-19.18,104.924,132-15.8,23.692-94.77Z" fill="#3f3d56"/>
    <path id="Path_261" data-name="Path 261" d="M311.386,275.018l-15.795,93.641,120.154-14.1,23.128-85.18Z" fill="#fff"/>
    <path id="Path_262" data-name="Path 262" d="M292.77,377.121l-4.513-1.128L286,380.505l36.1,100.411,3.395-1.3,1.117-6.6Z" fill="#b3b3b3"/>
    <path id="Path_263" data-name="Path 263" d="M288.257,374.864l36.1,104.924L460.873,459.48,420.258,360.2Z" fill="#d0cde1"/>
    <path id="Path_264" data-name="Path 264" d="M306.309,371.48v5.641l100.41-11.282-1.128-5.641Z" fill="#3f3d56"/>
    <path id="Path_265" data-name="Path 265" d="M308.565,382.762l15.795,44,102.667-12.41-18.051-41.744Z" fill="#3f3d56"/>
    <path id="Path_266" data-name="Path 266" d="M636.167,599.355l-3.385-9.026s-25.949-45.128-39.487-36.1S621.5,607.253,621.5,607.253h13.539Z" transform="translate(-198.987 -154.542)" fill="#a0616a"/>
    <path id="Path_267" data-name="Path 267" d="M550.424,606.124l-3.385-13.539s-9.026-41.744,6.769-39.487,20.308,41.744,20.308,41.744l-1.128,9.026Z" transform="translate(-198.987 -154.542)" fill="#a0616a"/>
    <path id="Path_268" data-name="Path 268" d="M577.5,600.483s-29.333-4.513-30.462,2.256-6.769,108.308,21.436,111.693,168.1,18.051,153.436-16.923-37.231-30.462-37.231-30.462l-95.9,10.154Z" transform="translate(-198.987 -154.542)" fill="#575a89"/>
    <path id="Path_269" data-name="Path 269" d="M467.078,458.916l-29.9-20.872-19.744,15.231,24.821,27.077Z" fill="#575a89"/>
    <path id="Path_270" data-name="Path 270" d="M386.976,479.224l4.512,42.872,77.847-4.513-67.693-1.128Z" opacity="0.2"/>
    <circle id="Ellipse_83" data-name="Ellipse 83" cx="56.41" cy="56.41" r="56.41" transform="translate(562.11 416.192)" fill="#2f2e41"/>
    <path id="Path_271" data-name="Path 271" d="M328.309,307.736l69.949-2.435,6.769-25.77-72.205,2.179Z" fill="#6c63ff"/>
    <path id="Path_272" data-name="Path 272" d="M310.258,322.4l106.051-3.385,1.128-4.513-106.051,3.734Z" fill="#e6e6e6"/>
    <path id="Path_273" data-name="Path 273" d="M308,333.685,414.053,330.3l1.128-4.513-106.052,3.734Z" fill="#e6e6e6"/>
    <path id="Path_274" data-name="Path 274" d="M306.873,342.71l106.051-3.384,1.129-4.513L308,338.546Z" fill="#e6e6e6"/>
  </g>
</svg>
